<svg width="18" height="19" viewBox="0 0 18 19" fill="none" xmlns="http://www.w3.org/2000/svg">
<path d="M1.54688 9.34989C1.48437 9.18151 1.48437 8.99628 1.54688 8.82789C2.15565 7.35178 3.18902 6.08967 4.51596 5.20157C5.8429 4.31346 7.40366 3.83936 9.00038 3.83936C10.5971 3.83936 12.1579 4.31346 13.4848 5.20157C14.8117 6.08967 15.8451 7.35178 16.4539 8.82789C16.5164 8.99628 16.5164 9.18151 16.4539 9.34989C15.8451 10.826 14.8117 12.0881 13.4848 12.9762C12.1579 13.8643 10.5971 14.3384 9.00038 14.3384C7.40366 14.3384 5.8429 13.8643 4.51596 12.9762C3.18902 12.0881 2.15565 10.826 1.54688 9.34989Z" stroke="#A1A1AA" stroke-width="1.5" stroke-linecap="round" stroke-linejoin="round"/>
<path d="M9 11.3389C10.2426 11.3389 11.25 10.3315 11.25 9.08887C11.25 7.84623 10.2426 6.83887 9 6.83887C7.75736 6.83887 6.75 7.84623 6.75 9.08887C6.75 10.3315 7.75736 11.3389 9 11.3389Z" stroke="#A1A1AA" stroke-width="1.5" stroke-linecap="round" stroke-linejoin="round"/>
</svg>
