<svg width="16" height="17" viewBox="0 0 16 17" fill="none" xmlns="http://www.w3.org/2000/svg">
<g clip-path="url(#clip0_16_1016)">
<path d="M15.04 8.25537C15.04 7.73537 14.9933 7.23537 14.9067 6.75537H8V9.59537H11.9467C11.7733 10.5087 11.2533 11.282 10.4733 11.802V13.6487H12.8533C14.24 12.3687 15.04 10.4887 15.04 8.25537Z" fill="#4285F4"/>
<path d="M7.99979 15.4221C9.97979 15.4221 11.6398 14.7688 12.8531 13.6488L10.4731 11.8021C9.81979 12.2421 8.98646 12.5088 7.99979 12.5088C6.09312 12.5088 4.47313 11.2221 3.89313 9.48877H1.45312V11.3821C2.65979 13.7754 5.13312 15.4221 7.99979 15.4221Z" fill="#34A853"/>
<path d="M3.89366 9.48225C3.74699 9.04225 3.66033 8.57558 3.66033 8.08891C3.66033 7.60225 3.74699 7.13558 3.89366 6.69558V4.80225H1.45366C0.953659 5.78891 0.666992 6.90225 0.666992 8.08891C0.666992 9.27558 0.953659 10.3889 1.45366 11.3756L3.35366 9.89558L3.89366 9.48225Z" fill="#FBBC05"/>
<path d="M7.99979 3.67537C9.07979 3.67537 10.0398 4.0487 10.8065 4.7687L12.9065 2.6687C11.6331 1.48204 9.97979 0.755371 7.99979 0.755371C5.13312 0.755371 2.65979 2.40204 1.45312 4.80204L3.89313 6.69537C4.47313 4.96204 6.09312 3.67537 7.99979 3.67537Z" fill="#EA4335"/>
</g>
<defs>
<clipPath id="clip0_16_1016">
<rect width="16" height="16" fill="white" transform="translate(0 0.0888672)"/>
</clipPath>
</defs>
</svg>
