<svg width="17" height="16" viewBox="0 0 17 16" fill="none" xmlns="http://www.w3.org/2000/svg">
<path d="M10.4902 14V8.66667C10.4902 8.48986 10.42 8.32029 10.295 8.19526C10.1699 8.07024 10.0004 8 9.82357 8H7.1569C6.98009 8 6.81052 8.07024 6.6855 8.19526C6.56047 8.32029 6.49023 8.48986 6.49023 8.66667V14" stroke="#9B87F5" stroke-width="1.33333" stroke-linecap="round" stroke-linejoin="round"/>
<path d="M2.49023 6.66648C2.49019 6.47253 2.53246 6.2809 2.61409 6.10496C2.69573 5.92902 2.81477 5.77301 2.9629 5.64782L7.62957 1.64848C7.87023 1.44509 8.17514 1.3335 8.49023 1.3335C8.80533 1.3335 9.11024 1.44509 9.3509 1.64848L14.0176 5.64782C14.1657 5.77301 14.2847 5.92902 14.3664 6.10496C14.448 6.2809 14.4903 6.47253 14.4902 6.66648V12.6665C14.4902 13.0201 14.3498 13.3592 14.0997 13.6093C13.8497 13.8593 13.5105 13.9998 13.1569 13.9998H3.82357C3.46995 13.9998 3.13081 13.8593 2.88076 13.6093C2.63071 13.3592 2.49023 13.0201 2.49023 12.6665V6.66648Z" stroke="#9B87F5" stroke-width="1.33333" stroke-linecap="round" stroke-linejoin="round"/>
</svg>
