<svg width="16" height="17" viewBox="0 0 16 17" fill="none" xmlns="http://www.w3.org/2000/svg">
<g clip-path="url(#clip0_16_1497)">
<path d="M10.0002 14.7557V12.089C10.0929 11.2539 9.85347 10.4158 9.33352 9.7557C11.3335 9.7557 13.3335 8.42236 13.3335 6.08903C13.3869 5.2557 13.1535 4.4357 12.6669 3.7557C12.8535 2.98903 12.8535 2.18903 12.6669 1.42236C12.6669 1.42236 12.0002 1.42236 10.6669 2.42236C8.90685 2.08903 7.09352 2.08903 5.33352 2.42236C4.00019 1.42236 3.33352 1.42236 3.33352 1.42236C3.13352 2.18903 3.13352 2.98903 3.33352 3.7557C2.8481 4.43295 2.6125 5.25755 2.66685 6.08903C2.66685 8.42236 4.66685 9.7557 6.66685 9.7557C6.40685 10.0824 6.21352 10.4557 6.10019 10.8557C5.98685 11.2557 5.95352 11.6757 6.00019 12.089V14.7557" stroke="#FAFAFA" stroke-width="1.33333" stroke-linecap="round" stroke-linejoin="round"/>
<path d="M5.99967 12.0887C2.99301 13.422 2.66634 10.7554 1.33301 10.7554" stroke="#FAFAFA" stroke-width="1.33333" stroke-linecap="round" stroke-linejoin="round"/>
</g>
<defs>
<clipPath id="clip0_16_1497">
<rect width="16" height="16" fill="white" transform="translate(0 0.0888672)"/>
</clipPath>
</defs>
</svg>
