<svg width="17" height="17" viewBox="0 0 17 17" fill="none" xmlns="http://www.w3.org/2000/svg">
<path d="M11.1663 14.0889V12.7555C11.1663 12.0483 10.8854 11.37 10.3853 10.8699C9.8852 10.3698 9.20692 10.0889 8.49967 10.0889H4.49967C3.79243 10.0889 3.11415 10.3698 2.61406 10.8699C2.11396 11.37 1.83301 12.0483 1.83301 12.7555V14.0889" stroke="white" stroke-width="1.33333" stroke-linecap="round" stroke-linejoin="round"/>
<path d="M6.49967 7.4222C7.97243 7.4222 9.16634 6.22829 9.16634 4.75553C9.16634 3.28277 7.97243 2.08887 6.49967 2.08887C5.02692 2.08887 3.83301 3.28277 3.83301 4.75553C3.83301 6.22829 5.02692 7.4222 6.49967 7.4222Z" stroke="white" stroke-width="1.33333" stroke-linecap="round" stroke-linejoin="round"/>
<path d="M13.167 5.42236V9.42236" stroke="white" stroke-width="1.33333" stroke-linecap="round" stroke-linejoin="round"/>
<path d="M15.167 7.42236H11.167" stroke="white" stroke-width="1.33333" stroke-linecap="round" stroke-linejoin="round"/>
</svg>
